<svg height="511pt" viewBox="0 -14 511.998 511" width="511pt" xmlns="http://www.w3.org/2000/svg"><path d="m504.507812 435.515625h-439.570312v-110.175781c0-70 56.746094-126.742188 126.746094-126.742188h186.078125c70 0 126.746093 56.742188 126.746093 126.742188zm0 0" fill="#d2ffff"/><path d="m377.894531 198.597656h-58.960937c69.925781 0 126.613281 56.683594 126.613281 126.609375v110.308594h58.960937v-110.308594c0-69.925781-56.6875-126.609375-126.613281-126.609375zm0 0" fill="#9af1ff"/><path d="m413.078125 476.28125h-256.710937c-5.523438 0-10-4.476562-10-10v-143.636719c0-5.523437 4.476562-10 10-10h256.710937c5.523437 0 10 4.476563 10 10v143.636719c0 5.523438-4.476563 10-10 10zm0 0" fill="#1dc2ff"/><path d="m413.089844 312.644531h-35.882813v133.667969c0 5.515625-4.472656 9.988281-9.988281 9.988281h-220.851562v9.988281c0 5.519532 4.472656 9.992188 9.992187 9.992188h256.730469c5.515625 0 9.988281-4.472656 9.988281-9.992188v-143.65625c0-5.515624-4.472656-9.988281-9.988281-9.988281zm0 0" fill="#00a2ff"/><path d="m388.15625 141.152344c0-13.566406-7.375-24.707032-16.789062-25.941406v-35.289063c0-39.726563-32.207032-71.929687-71.933594-71.929687h-39.0625c-39.726563 0-71.929688 32.203124-71.929688 71.929687v35.289063c-9.417968 1.234374-16.789062 12.375-16.789062 25.941406 0 13.84375 7.675781 25.164062 17.367187 26.003906 2.710938 21.726562 15.101563 40.433594 32.726563 51.679688 1.285156 19.804687 17.742187 35.472656 37.871094 35.472656h40.570312c20.128906 0 36.589844-15.667969 37.871094-35.472656 17.628906-11.246094 30.035156-29.953126 32.746094-51.679688 9.683593-.855469 17.351562-12.167969 17.351562-26.003906zm0 0" fill="#f7c6ba"/><path d="m280.039062 193.488281c19.339844 0 35.015626-15.675781 35.015626-35.015625h-70.03125c0 19.339844 15.679687 35.015625 35.015624 35.015625zm0 0" fill="#fff"/><path d="m113.066406 476.324219h-68.296875c-5.523437 0-10-4.476563-10-10v-95.265625c0-5.523438 4.476563-10 10-10h68.296875c5.523438 0 10 4.476562 10 10v95.265625c0 5.523437-4.476562 10-10 10zm0 0" fill="#ff6914"/><path d="m113.078125 361.058594h-11.988281v91.648437c0 5.515625-4.472656 9.988281-9.988282 9.988281h-56.332031v3.640626c0 5.515624 4.472657 9.988281 9.988281 9.988281h68.320313c5.515625 0 9.988281-4.472657 9.988281-9.988281v-95.285157c0-5.519531-4.472656-9.992187-9.988281-9.992187zm0 0" fill="#ed500a"/><path d="m39.882812 453.675781h-5.761718c-18.816406 0-34.121094-15.304687-34.121094-34.117187v-1.902344c0-18.816406 15.304688-34.121094 34.121094-34.121094h5.761718c4.136719 0 7.492188 3.355469 7.492188 7.492188 0 4.140625-3.355469 7.492187-7.492188 7.492187h-5.761718c-10.550782 0-19.136719 8.585938-19.136719 19.136719v1.902344c0 10.550781 8.585937 19.132812 19.136719 19.132812h5.761718c4.136719 0 7.492188 3.355469 7.492188 7.492188 0 4.140625-3.355469 7.492187-7.492188 7.492187zm0 0" fill="#ff6914"/><path d="m388.15625 141.152344c0-13.566406-7.375-24.707032-16.789062-25.941406v-35.296876c0-30.554687-19.066407-56.640624-45.941407-67.0625 14.121094 13.132813 22.964844 31.863282 22.964844 52.664063v78.257813c0 39.722656-32.203125 71.925781-71.925781 71.925781h-39.074219c-9.167969 0-17.925781-1.730469-25.988281-4.859375 12.839844 11.941406 30.042968 19.257812 48.964844 19.257812h39.074218c.578125 0 1.148438-.027344 1.722656-.042968-6.933593 13.886718-21.03125 23.570312-37.457031 24.210937.574219.019531 1.148438.042969 1.726563.042969h34.753906c20.128906 0 36.585938-15.667969 37.871094-35.46875 17.628906-11.246094 30.019531-29.953125 32.726562-51.683594 9.695313-.84375 17.371094-12.160156 17.371094-26.003906zm0 0" fill="#f4ada5"/><path d="m270.753906 57.894531h18.296875c36.207031 0 67.492188 21.039063 82.3125 51.558594v-29.539063c0-39.722656-32.199219-71.921874-71.921875-71.921874h-39.078125c-39.722656 0-71.921875 32.199218-71.921875 71.921874v29.539063c14.820313-30.519531 46.105469-51.558594 82.3125-51.558594zm0 0" fill="#005ca0"/><path d="m371.039062 73.175781c-1.804687-19.40625-11.667968-37.515625-26.953124-49.628906-.105469-.082031-.210938-.164063-.316407-.25-2.710937-2.121094-5.578125-4.058594-8.582031-5.78125-.042969-.027344-.085938-.050781-.128906-.074219-3.074219-1.757812-6.289063-3.292968-9.625-4.585937 0-.003907-.003906-.003907-.003906-.003907 14.121093 13.132813 22.960937 31.863282 22.960937 52.667969v14.242188c9.5625 8.164062 17.425781 18.261719 22.976563 29.691406v-29.539063c-.003907-2.234374-.121094-4.511718-.328126-6.738281zm0 0" fill="#005182"/><path d="m280.039062 200.980469c-23.4375 0-42.507812-19.066407-42.507812-42.507813 0-4.136718 3.355469-7.492187 7.492188-7.492187h70.03125c4.136718 0 7.492187 3.355469 7.492187 7.492187.003906 23.441406-19.066406 42.507813-42.507813 42.507813zm-26.484374-35.011719c3.269531 11.542969 13.90625 20.027344 26.484374 20.027344 12.582032 0 23.214844-8.484375 26.488282-20.027344zm0 0"/><path d="m377.894531 191.101562h-6.179687c2.582031-5.667968 4.507812-11.664062 5.695312-17.882812 10.726563-4.207031 18.238282-16.875 18.238282-32.066406 0-14.316406-6.875-26.617188-16.789063-31.410156v-29.828126c0-43.789062-35.628906-79.414062-79.417969-79.414062h-39.074218c-43.792969 0-79.417969 35.625-79.417969 79.414062v29.832032c-9.914063 4.789062-16.789063 17.089844-16.789063 31.40625 0 15.191406 7.511719 27.859375 18.234375 32.066406 3.863281 20.167969 15.378907 37.992188 32.28125 49.894531 3.289063 21.980469 22.339844 38.6875 44.941407 38.6875h40.570312c22.601562 0 41.65625-16.707031 44.941406-38.6875 6.804688-4.789062 12.714844-10.550781 17.625-17.023437h15.140625c65.683594 0 119.121094 53.4375 119.121094 119.117187v102.816407h-66.441406v-105.386719c0-9.640625-7.84375-17.484375-17.484375-17.484375h-256.730469c-9.640625 0-17.480469 7.84375-17.480469 17.484375v105.386719h-8.316406v-56.972657c0-9.640625-7.84375-17.484375-17.484375-17.484375h-40.644531v-28.359375c0-56.019531 38.09375-103.789062 92.640625-116.167969 4.035156-.914062 6.566406-4.929687 5.648437-8.964843-.914062-4.035157-4.929687-6.5625-8.964844-5.648438-29.167968 6.621094-55.644531 23.144531-74.550781 46.535157-19.191406 23.742187-29.761719 53.660156-29.761719 84.246093v28.359375h-12.6875c-9.640624 0-17.480468 7.84375-17.480468 17.484375v13.175781c-15.546875 3.175782-27.277344 16.957032-27.277344 33.425782v1.902344c0 16.472656 11.730469 30.253906 27.273438 33.429687v13.347656c0 9.640625 7.84375 17.484375 17.484374 17.484375h68.316407c9.640625 0 17.484375-7.84375 17.484375-17.484375v-23.324219h8.316406v23.28125c0 9.640626 7.84375 17.480469 17.480469 17.480469h256.730469c9.640624 0 17.484374-7.839843 17.484374-17.480469v-23.28125h73.933594c4.140625 0 7.492188-3.355468 7.492188-7.492187v-110.308594c.003906-73.945312-60.15625-134.105469-134.101563-134.105469zm-14.542969-24.871093c-2.375 19.035156-13.0625 35.90625-29.324218 46.289062-2.011719 1.285157-3.292969 3.449219-3.445313 5.832031-1.035156 15.960938-14.382812 28.460938-30.394531 28.460938h-40.570312c-16.007813 0-29.355469-12.5-30.390626-28.460938-.15625-2.382812-1.433593-4.546874-3.445312-5.832031-16.261719-10.382812-26.953125-27.253906-29.324219-46.289062-.4375-3.507813-3.265625-6.230469-6.785156-6.539063-5.082031-.441406-10.523437-7.996094-10.523437-18.539062 0-10.269532 5.308593-17.863282 10.265624-18.511719 3.730469-.488281 6.523438-3.667969 6.523438-7.429687v-3.96875c14.429688-28.324219 42.941406-45.855469 74.820312-45.855469h18.296876c9 0 17.855468 1.414062 26.3125 4.207031 3.933593 1.296875 8.167968-.839844 9.464843-4.769531 1.296875-3.929688-.839843-8.167969-4.769531-9.464844-9.976562-3.289063-20.410156-4.957031-31.007812-4.957031h-18.296876c-18.929687 0-37.332031 5.363281-53.210937 15.511718-8.117187 5.1875-15.375 11.5-21.609375 18.699219v-4.695312c0-35.527344 28.902344-64.433594 64.429688-64.433594h39.074218c35.53125 0 64.433594 28.90625 64.433594 64.433594v4.714843c-4.113281-4.753906-8.667969-9.128906-13.597656-13.019531-3.25-2.5625-7.960938-2.007812-10.523438 1.242188s-2.007812 7.960937 1.242188 10.523437c9.507812 7.5 17.386718 17.105469 22.878906 27.855469v3.980469c0 3.761718 2.789062 6.941406 6.519531 7.429687 4.960938.648438 10.269531 8.242188 10.269531 18.511719 0 10.539062-5.441406 18.097656-10.523437 18.539062-3.523437.304688-6.351563 3.027344-6.789063 6.535157zm-336.078124 271.171875c-7.171876-2.761719-12.289063-9.707032-12.289063-17.84375v-1.902344c0-8.136719 5.113281-15.085938 12.289063-17.847656zm88.300781 28.933594c0 1.375-1.121094 2.496093-2.5 2.496093h-68.316407c-1.375 0-2.496093-1.121093-2.496093-2.496093v-95.285157c0-1.378906 1.121093-2.496093 2.496093-2.496093h68.316407c1.378906 0 2.5 1.117187 2.5 2.496093zm300.011719-.046876c0 1.378907-1.121094 2.496094-2.496094 2.496094h-256.730469c-1.378906 0-2.5-1.117187-2.5-2.496094v-143.652343c0-1.378907 1.121094-2.5 2.5-2.5h256.730469c1.375 0 2.496094 1.121093 2.496094 2.5zm0 0"/><path d="m249.816406 121.308594c0 7.371094-5.976562 13.351562-13.347656 13.351562-7.375 0-13.351562-5.980468-13.351562-13.351562 0-7.375 5.976562-13.351563 13.351562-13.351563 7.371094 0 13.347656 5.976563 13.347656 13.351563zm0 0" fill="#005ca0"/><path d="m333.285156 121.308594c0 7.371094-5.980468 13.351562-13.351562 13.351562-7.375 0-13.351563-5.980468-13.351563-13.351562 0-7.375 5.976563-13.351563 13.351563-13.351563 7.371094 0 13.351562 5.976563 13.351562 13.351563zm0 0" fill="#005ca0"/><path d="m249.816406 121.308594c0 7.371094-5.976562 13.351562-13.347656 13.351562-7.375 0-13.351562-5.980468-13.351562-13.351562 0-7.375 5.976562-13.351563 13.351562-13.351563 7.371094 0 13.347656 5.976563 13.347656 13.351563zm0 0"/><path d="m333.285156 121.308594c0 7.371094-5.980468 13.351562-13.351562 13.351562-7.375 0-13.351563-5.980468-13.351563-13.351562 0-7.375 5.976563-13.351563 13.351563-13.351563 7.371094 0 13.351562 5.976563 13.351562 13.351563zm0 0"/></svg>