<svg id="Layer_1" enable-background="new 0 0 512 512" height="512" viewBox="0 0 512 512" width="512" xmlns="http://www.w3.org/2000/svg"><path d="m466 452h-330v-392c0-3.501-.527-6.504-1.758-9.771l-7.529-20.229h339.287z" fill="#e6ffff"/><path d="m316 30h150v422h-150z" fill="#e6ffff"/><path d="m166 452h-25.693l-6.182-10.107c-4.102-11.895-15.41-19.893-28.125-19.893-16.553 0-30 13.462-30 30h-30v-392c0-33.091 26.924-60 60-60 25.518 0 48.193 16.113 56.484 40.107 2.315 6.241 3.516 12.862 3.516 19.893z" fill="#ffca80"/><g fill="#596c76"><path d="m196 90h210v30h-210z"/><path d="m196 270h210v30h-210z"/><path d="m196 330h210v30h-210z"/><path d="m286 240h-90v-90h90z"/><path d="m316 150h90v30h-90z"/><path d="m316 210h90v30h-90z"/></g><path d="m166 452c0-33.138-26.863-60-60-60s-60 26.862-60 60c0 33.137 26.863 60 60 60h330v-60z" fill="#ff9100"/><path d="m316 150h90v30h-90z" fill="#465a61"/><path d="m316 210h90v30h-90z" fill="#465a61"/><path d="m316 452h120v60h-120z" fill="#ff641a"/><path d="m316 330h90v30h-90z" fill="#465a61"/><path d="m316 270h90v30h-90z" fill="#465a61"/><path d="m316 90h90v30h-90z" fill="#465a61"/></svg>