<?xml version="1.0" standalone="no"?>
<!DOCTYPE svg PUBLIC "-//W3C//DTD SVG 20010904//EN"
 "http://www.w3.org/TR/2001/REC-SVG-20010904/DTD/svg10.dtd">
<svg version="1.0" xmlns="http://www.w3.org/2000/svg"
 width="700.000000pt" height="700.000000pt" viewBox="0 0 700.000000 700.000000"
 preserveAspectRatio="xMidYMid meet">
<metadata>
Created by potrace 1.11, written by Peter Selinger 2001-2013
</metadata>
<g transform="translate(0.000000,700.000000) scale(0.100000,-0.100000)"
fill="#000000" stroke="none">
<path d="M598 6397 l363 -363 -360 -479 -360 -480 1630 -3 c896 -1 2362 -1
3258 0 l1630 3 -360 480 -360 479 363 363 363 363 -3265 0 -3265 0 363 -363z"/>
<path d="M1959 4457 c-100 -29 -200 -113 -242 -205 -18 -38 -22 -66 -22 -147
0 -89 3 -106 28 -157 32 -66 99 -136 162 -169 l43 -23 5 -295 c4 -253 8 -310
26 -392 91 -414 324 -762 664 -993 99 -67 293 -160 407 -195 182 -57 247 -66
470 -66 220 0 311 13 490 71 100 33 298 130 387 190 339 230 573 580 664 992
19 83 22 139 26 393 l5 295 43 23 c63 33 130 103 162 169 25 51 28 68 28 157
0 89 -3 106 -28 156 -52 107 -170 191 -288 205 -247 29 -456 -208 -395 -447
27 -105 98 -195 194 -243 l32 -17 0 -257 c0 -292 -10 -373 -66 -542 -132 -396
-438 -702 -837 -835 -142 -47 -255 -65 -417 -65 -162 0 -275 18 -417 65 -402
134 -704 436 -838 838 -55 165 -65 246 -65 538 l0 258 33 17 c95 48 166 138
193 243 55 215 -107 432 -333 446 -40 3 -87 0 -114 -8z"/>
</g>
</svg>
